<svg xmlns="http://www.w3.org/2000/svg" xmlns:xlink="http://www.w3.org/1999/xlink" version="1.1" width="1596px" height="227px" style="shape-rendering:geometricPrecision; text-rendering:geometricPrecision; image-rendering:optimizeQuality; fill-rule:evenodd; clip-rule:evenodd">






























<g><path fill="#bdd4e5" stroke="#bdd4e5" stroke-width="0.5" d="M 323.9,120 c 1.48,-38.93 34.57,-28.39 61.17,-33.31 c 48.88,-9.06 28.07,-65.48 75.75,-71.03 c 59.44,-6.58 112.52,31.9 116.83,93.03 c 1.68,24.93 -5.98,51.34 -32.74,58.47 c -21.48,5.06 -41.78,6.21 -60.22,19.88 c -18.42,13.78 -31.24,28.59 -55.32,32.65 c -62.41,9.13 -105.1,-40.07 -105.47,-99.69 Z M 21.68,176 c 3.47,-33.34 2.25,-65.12 0.45,-98.49 c -0.24,-39.22 34.26,-50.4 67.38,-50.2 c 66.51,2.63 142.25,42.78 140.52,118.16 c -0.4,40.04 -29.87,69.69 -68.73,74.96 c -24.94,4.69 -38.79,-16.11 -61.07,-13.11 c -25.7,5.93 -44.69,7.46 -67.26,-8.81 c -7.47,-5.65 -11.24,-13.15 -11.29,-22.51 Z M 646.69,105 c 0.73,-38.19 17.79,-70.36 58.95,-74.48 c 18.8,-0.66 37.15,-1.99 55.22,4.38 c 17.7,6.65 33.56,10.16 52.64,10.16 c 30.47,2.41 70.83,-7.28 88.59,25.32 c 11.75,19.72 12.93,43.27 4.04,64.35 c -21.08,51.48 -64.82,71.56 -118.48,71.73 c -56.45,-0.6 -126.56,-14.54 -139.06,-79.47 c -1.2,-7.28 -1.84,-14.61 -1.9,-21.99 Z M 1297.03,90 c 0.85,-35.95 18.36,-54 54.1,-56.04 c 61.45,-7.41 118.71,-4.11 178.56,11.99 c 58.45,16.96 60.49,96.38 22.37,134.8 c -32.12,34.38 -49.76,20.46 -85.34,2.9 c -20.1,-7.92 -33.73,0.82 -51.31,9.05 c -27.06,12.09 -72.9,0.87 -88.19,-25.15 c -10.42,-22.41 -29.36,-52.83 -30.19,-77.55 Z M 967.05,118 c -1.31,-40.68 24.71,-72.98 67.09,-70.53 c 38.01,6.93 71.97,10.39 109.71,-0.99 c 26.83,-9.39 46.59,-15.08 75.45,-8.01 c 32.63,6.67 45.42,44.46 31.16,72.57 c -9.04,13.59 -16.8,24.91 -20.98,41.1 c -8.05,35.89 -14.48,59.62 -57.18,61.41 c -22.74,1.58 -41.5,-3.06 -63.51,-7.2 c -27.86,-4.06 -56.04,-4.94 -84.08,-7 c -38.78,-3.95 -55.7,-47.55 -57.66,-81.35 Z M 797.21,90.97 c 0.36,3.48 5.55,2.7 5.04,-0.42 c -0.56,-3.47 -5.32,-3.06 -5.04,0.42 Z M 718.67,100.98 c 1.22,9.22 10.49,11.48 17.65,6.78 c 1.25,-1.37 -1.14,-2.72 -2.04,-3.45 c -1.36,0.32 -2.68,0.76 -3.98,1.34 c -7.51,1.7 -8.83,-12.23 0.1,-10.59 c 1.32,0.57 2.62,1.12 3.9,1.66 c 1.12,-0.61 2.77,-2.38 2.15,-3.73 c -7.75,-5.6 -17.39,-2.08 -17.78,7.99 Z M 783.99,95.22 c -0.36,-0.03 -0.64,0.12 -0.83,0.45 c -0.83,2.7 0.24,2.47 1.73,3.91 c 0.59,1.73 -0.67,6.56 1.05,7.54 c 0.67,3.31 10.22,4.56 8.05,-0.5 c -1,-0.48 -2.02,-0.9 -3.08,-1.26 c -0.25,-1.4 -0.87,-5.63 0.56,-6.44 c 2.9,-0.28 3.65,0.07 3.18,-3.22 c -0.95,-0.48 -1.99,-0.74 -3.11,-0.76 c -1.8,-1.1 0.11,-4.06 -2.07,-3.75 c -1.24,-0.06 -2.47,-0.03 -3.7,0.08 c -0.38,1 -0.59,2.06 -0.63,3.18 c -0.25,0.45 -0.63,0.71 -1.15,0.77 Z M 739.94,110 c 1.34,0 2.69,-0.01 4.04,-0.04 c 0.68,-0.22 1.01,-0.71 1,-1.45 c -0.01,-2.56 0.01,-5.13 0.05,-7.7 c -0.04,-0.4 0.1,-0.72 0.42,-0.96 c 1.25,-0.31 2.42,-0.8 3.5,-1.46 c 0.68,-3.47 -0.52,-4.31 -3.6,-2.53 c -1.86,-0.59 -3.44,-1.21 -5.5,-1.02 c -0.62,0.35 -0.91,0.9 -0.88,1.63 c -0.06,4.31 0,8.61 0.18,12.9 c 0.16,0.35 0.42,0.56 0.79,0.63 Z M 750.93,98.84 c -1.52,0.97 -1.57,6.8 0.16,7.31 c 0.85,3.63 8.44,4.48 11.36,2.77 c 1.95,-0.9 2.13,-2.05 0.52,-3.44 c -1.58,-0.9 -7.57,2.36 -6.96,-1.88 c 2.96,-0.13 5.93,-0.24 8.92,-0.3 c 0.07,0.2 0.21,0.31 0.42,0.33 c 1,-0.79 1.07,-3.12 -0.17,-3.83 c -2.28,-6.39 -10.92,-6.36 -14.25,-0.96 Z M 781.04,110.01 c 0.37,-0.07 0.64,-0.28 0.8,-0.64 c 0.03,-1.8 0.95,-10.9 -0.84,-11.55 c -1.98,-4.19 -8.77,-2.87 -12.25,-1.65 c -1.13,1.93 -0.57,2.98 1.69,3.13 c 2,-0.29 4,-0.31 6,-0.07 c 0.56,1 0.24,1.55 -0.94,1.64 c -3.08,0.34 -5.65,-0.26 -7.95,2.2 c -2.91,9.31 8.52,5.61 13.49,6.94 Z M 797.98,109.94 c 1.29,0.1 2.56,0.05 3.83,-0.14 c 0.79,-0.05 1.19,-0.48 1.19,-1.3 c -0.06,-4.01 -0.06,-8.02 0.01,-12.03 c 0,-0.8 -0.38,-1.23 -1.16,-1.28 c -1.31,-0.28 -2.64,-0.4 -4,-0.37 c -0.61,0.37 -0.91,0.92 -0.88,1.66 c -0.06,4.3 0,8.6 0.19,12.89 c 0.17,0.35 0.44,0.54 0.82,0.57 Z M 804.32,95.17 c 0.79,4.39 3.78,9.53 4.88,14.11 c 0.98,0.68 2.09,0.92 3.31,0.74 c 0.9,0.11 1.69,-0.13 2.35,-0.72 c 1.55,-4 3.16,-7.97 4.81,-11.91 c 1.41,-3.64 -3.44,-2.96 -4.71,-1.83 c -0.75,2.74 -1.59,5.45 -2.53,8.14 c -0.63,-0.19 -1.05,-0.61 -1.24,-1.26 c -0.62,-2.43 -1.23,-4.84 -1.81,-7.24 c -1.68,-0.36 -3.36,-0.37 -5.06,-0.03 Z M 820.7,102.95 c -0.27,7.13 8.86,8.93 13.72,5.08 c 1.19,-3.87 -2.97,-2.55 -4.95,-2.09 c -1.13,0.12 -2.09,-0.22 -2.87,-1.03 c -1.43,-3.26 8.22,0.22 9.5,-2.39 c 1.18,-9.96 -16.02,-11.03 -15.4,0.43 Z M 826.15,100.02 c 0.88,-2.84 5.25,-1.96 4.7,0.32 c -0.58,0.87 -4.7,0.99 -4.7,-0.32 Z M 771.8,105.05 c 0.58,-1.9 4.81,-2.24 4.84,-0.61 c -0.38,2.21 -3.84,2.62 -4.84,0.61 Z M 75.14,110.74 c -0.42,0.17 -0.75,0.45 -0.97,0.85 c -0.5,1.24 -0.28,2.29 0.66,3.14 c 2.53,0.94 5.77,0.28 4.73,-3.12 c -0.57,-1.62 -3.54,-1.89 -4.42,-0.87 Z M 53.99,132 c 9.66,0.55 20.63,-0.77 17.31,-13.85 c -3.35,-6.9 -11.02,-5.62 -17.4,-5.84 c -0.97,0.01 -0.86,1.57 -0.94,2.17 c 0.01,5.01 0,10.02 -0.02,15.04 c 0.03,0.81 -0.12,2.37 1.05,2.48 Z M 392.29,129.71 c 5.84,3.62 18.81,4.33 16.27,-5.96 c -2.09,-2.83 -5.96,-3.26 -8.91,-4.85 c -0.87,-0.97 -0.94,-2.95 0.88,-2.75 c 2.22,0.59 4.43,1.14 6.65,1.65 c 5.21,-6.03 -5.81,-5.8 -9.09,-5.05 c -4.02,1.36 -5.52,4.09 -4.49,8.17 c 2.44,2.39 5.77,3 8.78,4.33 c 1.14,0.85 1.2,1.77 0.17,2.74 c -4.16,1.36 -5.4,-1.88 -8.77,-1.81 c -0.84,1.02 -1.34,2.2 -1.49,3.53 Z M 411.96,121.27 c 0.29,1.72 -0.75,7.05 0.9,7.93 c 0.97,3.36 5.27,3.33 7.84,1.97 c 1.43,-2.53 -0.47,-3.48 -2.72,-3.31 c -0.35,-2.12 -0.39,-4.24 -0.13,-6.36 c 1.09,-0.5 2.16,-0.96 3.21,-1.38 c 0.55,-2.53 -0.48,-3.56 -3.07,-3.06 c -0.05,-0.96 0.54,-4.13 -1.27,-3.75 c -1.07,-0.05 -3.69,-0.61 -4.35,0.39 c 0.12,2.46 -0.29,2.65 -2.02,4.03 c -0.63,1.78 -0.09,2.96 1.61,3.54 Z M 452.96,121.27 c -0.01,2.08 0,4.17 0.03,6.26 c 0,0.75 0.32,1.3 0.97,1.65 c 0.44,3.26 5.57,3.32 7.81,2.04 c 0.8,-2.57 -0.14,-3.68 -2.84,-3.33 c -0.32,-2.13 -0.34,-4.25 -0.05,-6.37 c 0.22,-0.2 0.44,-0.41 0.67,-0.61 c 0.59,-0.49 2.51,0.27 2.47,-0.79 c 0.53,-2.51 -0.47,-3.53 -3.03,-3.06 c -0.05,-0.96 0.54,-4.13 -1.27,-3.75 c -1.09,-0.06 -3.69,-0.6 -4.39,0.41 c 0.14,2.61 -0.06,2.59 -1.97,3.99 c -0.76,1.82 -0.23,3.01 1.6,3.56 Z M 1140.22,114.75 c -1.78,0.51 -1.86,3.29 -0.28,4.04 c 1.15,0.36 2.31,0.39 3.47,0.1 c 2.68,-1.55 1.39,-5.24 -1.9,-4.67 c -0.57,-0.08 -1,0.09 -1.29,0.53 Z M 1407.89,119.06 c 0.56,-0.23 0.89,-0.64 0.98,-1.23 c 1,-3.92 -4.13,-5.34 -5.16,-1.26 c -0.28,2.8 2.19,2.68 4.18,2.49 Z M 1445.92,119.03 c 0.57,-0.23 0.9,-0.65 0.99,-1.26 c 0.87,-5.22 -6.71,-4.52 -4.72,0.5 c 1.11,0.83 2.35,1.09 3.73,0.76 Z M 1498.9,119.03 c 0.57,-0.21 0.93,-0.6 1.08,-1.19 c 0.62,-5.57 -7.04,-4.41 -4.81,0.49 c 1.12,0.78 2.36,1.01 3.73,0.7 Z M 58.96,116.31 c 2.92,-0.18 5.39,0.76 7.43,2.82 c 0.91,3 0.3,5.62 -1.84,7.86 c -1.28,1.15 -3.93,0.77 -5.54,0.96 c -0.02,-3.88 -0.04,-7.76 -0.05,-11.64 Z M 1041.03,136.02 c 4.5,-0.02 8.99,-0.02 13.49,-0.01 c 1.01,0.01 1.6,-0.49 1.77,-1.47 c 0.98,-5.63 -10.44,0.08 -10.6,-4.05 c -0.89,-5.59 11.3,0.98 9.34,-5.07 c 0,-0.54 -0.23,-0.93 -0.69,-1.18 c -2.61,-0.06 -5.2,-0.15 -7.8,-0.28 c -1.33,-0.91 -1.28,-2.93 0.22,-3.61 c 2.91,0.01 5.82,-0.07 8.72,-0.25 c 0.51,-0.41 0.73,-0.95 0.66,-1.62 c 0.16,-1.35 -0.4,-2.09 -1.69,-2.2 c -4.46,-0.01 -8.91,-0.03 -13.37,-0.04 c -0.4,-0.1 -0.69,0.03 -0.88,0.41 c -0.21,5.95 -0.27,11.9 -0.2,17.87 c -0.01,0.75 0.34,1.25 1.03,1.5 Z M 1350.02,121.81 c -1.03,1.37 -1.44,2.93 -1.24,4.68 c 0.22,0.96 -0.15,4.56 1.44,4.5 c 0.08,1.8 4.05,4.02 5.58,4.68 c 15.16,4.08 19.71,-16.1 6.2,-19.14 c -5.11,-0.78 -9.1,0.98 -11.98,5.28 Z M 75.02,131.94 c 1.36,0.05 2.72,0.06 4.08,0.03 c 0.35,-0.07 0.59,-0.27 0.72,-0.61 c 0.18,-3.95 0.24,-7.91 0.2,-11.87 c 0.2,-1.16 -0.15,-2.08 -1.07,-2.74 c -1.3,0.14 -2.6,0.19 -3.91,0.15 c -0.42,0.07 -0.71,0.31 -0.88,0.7 c -0.19,4.59 -0.18,9.18 0.02,13.76 c 0.17,0.36 0.45,0.56 0.84,0.58 Z M 82.17,129.91 c 4.56,4.3 16.92,1.67 11.74,-5.35 c -1.09,-1.48 -6.35,-2.15 -6.6,-3.3 c 0,-0.78 0.4,-1.11 1.21,-0.98 c 1.62,0.45 3.25,0.72 4.9,0.8 c 1.22,-0.74 1.52,-1.72 0.89,-2.94 c -3.51,-1.79 -8.97,-2.42 -11.37,1.48 c -1.38,5 2.28,5.87 5.9,7.09 c 0.47,0.11 0.8,0.37 1.01,0.79 c -0.62,0.69 -1.4,0.94 -2.35,0.75 c -2.12,-0.53 -5.78,-2.49 -5.33,1.66 Z M 96.67,124.03 c -0.21,11.47 16.26,8.04 13.86,3.95 c -3.18,-2.72 -5.52,1.11 -7.45,-0.51 c -1.5,-1.69 -1.74,-3.54 -0.7,-5.55 c 2.49,-2.91 5.18,2.08 8.35,-1.56 c -0.07,-4.58 -13.33,-5.65 -14.06,3.67 Z M 112.24,121.27 c -0.04,1.89 0.1,3.77 0.43,5.62 c 7.58,12.7 22.2,-1.46 13.8,-7.8 c -4.46,-4.1 -10.73,-1.92 -14.23,2.18 Z M 129.67,117.77 c 1.68,4.47 3.23,8.98 4.63,13.54 c 0.6,0.98 3.23,0.59 4.24,0.7 c 0.87,0.02 1.52,-0.34 1.93,-1.09 c 1.56,-4.15 3.05,-8.32 4.5,-12.5 c 1.18,-2.22 -4.03,-2.06 -4.68,-0.84 c -0.57,2.42 -1.27,4.8 -2.07,7.14 c -0.51,1.4 -1,1.39 -1.48,-0.03 c -0.83,-2.53 -1.61,-5.06 -2.34,-7.58 c -1.37,-0.27 -3.99,-0.97 -4.73,0.66 Z M 146.27,125.1 c 0.64,6.54 9.3,8.64 13.62,5.18 c 0.54,-1.5 0.08,-2.53 -1.4,-3.09 c -1.77,0.27 -6.9,1.98 -6.31,-1.59 c 3.07,0.01 6.13,-0.16 9.18,-0.51 c 1.11,-2.76 -0.8,-6.24 -3.4,-7.45 c -6.02,-1.81 -12.04,0.43 -11.69,7.46 Z M 165.01,131.92 c 1.36,0.1 2.71,0.08 4.06,-0.06 c 0.65,-0.19 0.95,-0.64 0.9,-1.34 c 0.01,-2.59 0.02,-5.19 0.02,-7.78 c -0.21,-1.43 2.74,-1.29 3.54,-1.78 c 0.58,-0.77 0.92,-1.65 1.03,-2.63 c 1.66,3.8 3.35,7.59 5.07,11.37 c 1.14,3.25 -0.62,3.33 -3.16,3.27 c -0.53,0.06 -0.97,0.29 -1.31,0.69 c -0.87,0.96 -0.91,1.9 -0.13,2.82 c 10.71,3.83 11.06,-10.83 14.81,-17.13 c 1.63,-3.38 -2.42,-2.76 -4.22,-2.08 c -0.6,2 -1.23,4.01 -1.87,6.03 c -0.27,0.86 -0.68,1.64 -1.21,2.36 c -1.04,-2.82 -2.08,-5.64 -3.12,-8.45 c -3.07,-0.47 -6.08,-0.25 -9.03,0.68 c -2.03,-0.76 -3.13,-1.14 -5.54,-1.05 c -0.62,0.35 -0.91,0.9 -0.88,1.63 c 0,3.69 0,7.37 -0.02,11.05 c 0.02,0.77 -0.13,2.41 1.06,2.4 Z M 424.03,131.96 c 1.18,-0.22 4.07,0.51 4.77,-0.59 c 0.8,-4.91 -1.57,-9.04 4.55,-10.55 c 0.67,-0.8 0.58,-2.94 -0.08,-3.75 c -1.25,0.04 -2.46,0.29 -3.63,0.74 c -1.77,-0.78 -3.63,-1.11 -5.58,-0.98 c -0.43,0.09 -0.72,0.35 -0.88,0.76 c -0.24,4.6 -0.24,9.19 -0.01,13.77 c 0.18,0.36 0.47,0.56 0.86,0.6 Z M 449.01,132.01 c 0.39,-0.06 0.66,-0.27 0.83,-0.64 c 0.15,-2.36 0.9,-9.98 -0.83,-11.53 c 0.07,-3.76 -13.85,-3.59 -12.92,-0.38 c 0.54,4.34 7.97,-0.93 7.82,2.93 c -2.25,0.43 -4.51,0.86 -6.78,1.32 c -3.42,1.44 -3,6.08 -0.02,7.67 c 3.96,0.07 7.93,0.28 11.9,0.63 Z M 463.63,124.03 c 0.35,7.76 8.26,9.88 13.88,5.95 c 0.45,-1.28 0.03,-2.16 -1.27,-2.64 c -1.7,-0.11 -7.28,1.83 -6.8,-1.45 c 1.95,-1.53 9.73,1.46 9.82,-2.27 c -0.28,-8.43 -14.32,-9.75 -15.63,0.41 Z M 496.14,132.2 c 0.57,-0.4 0.85,-0.96 0.84,-1.68 c 0.1,-4.3 0.04,-8.6 -0.18,-12.89 c -0.14,-0.4 -0.4,-0.69 -0.78,-0.86 c -2.99,0.87 -9.4,-0.1 -11.98,0.86 c -6.96,5.08 -1.77,15.78 6.62,12.42 c 1.28,0.89 -0.17,2.54 -1.24,2.85 c -2.19,0 -4.35,-0.13 -6.48,-0.41 c -1.04,1.08 -1.17,2.23 -0.38,3.44 c 4.85,1.76 11.25,1.77 13.58,-3.73 Z M 498.05,116.97 c 1.21,3.21 2.48,6.39 3.82,9.55 c 0.31,1.51 2.7,5.41 0.57,6.37 c -1.19,0.04 -2.34,0.25 -3.45,0.62 c -1.39,1.96 -0.88,3.12 1.5,3.47 c 3.61,0.52 6.18,-0.87 7.69,-4.17 c 0.38,-3.54 11.04,-18.88 1.57,-15.68 c -1.24,2.79 -2.35,5.63 -3.32,8.54 c -1.42,-2.58 -2.56,-5.29 -3.4,-8.14 c -0.88,-1.21 -3.65,-0.4 -4.98,-0.56 Z M 1127.96,125.26 c 0.29,1.75 -0.76,7.05 0.92,7.96 c 0.97,3.26 5.22,3.31 7.76,1.99 c 1.02,-2.49 0.17,-3.62 -2.57,-3.39 c -0.5,-2.07 -0.56,-4.15 -0.18,-6.23 c 1.04,-0.59 2.07,-1.08 3.1,-1.5 c 0.74,-3.15 -0.78,-2.86 -3.25,-3.28 c -0.33,-1.03 -0.6,-2.09 -0.8,-3.18 c -0.75,-0.73 -3.91,-0.76 -4.62,-0.02 c 0.15,2.8 -0.07,2.58 -2,4.1 c -0.56,1.76 -0.01,2.95 1.64,3.55 Z M 1391.06,121.14 c -0.39,0 -0.69,0.18 -0.89,0.52 c -0.94,2.88 0.36,2.37 1.74,3.9 c 0.51,1.85 -0.63,6.46 0.98,7.66 c 0.31,1.86 3.97,2.98 5.61,2.74 c 2.42,0.05 3.26,-1.06 2.52,-3.35 c -1.02,-0.48 -2.07,-0.9 -3.15,-1.25 c -0.22,-1.36 -0.8,-5.66 0.57,-6.43 c 3.02,-0.33 3.7,0.23 3.24,-3.17 c -1.28,-0.39 -2.54,-0.84 -3.8,-1.35 c -0.71,-1.19 0.7,-3.49 -1.38,-3.24 c -1.22,0.16 -3.22,-0.43 -4.16,0.55 c -0.22,1.11 0.37,3.24 -1.28,3.42 Z M 1482.11,121.15 c -0.41,-0.01 -0.72,0.15 -0.94,0.5 c -0.98,3.09 0.44,2.33 1.72,3.91 c 0.6,1.66 -0.69,6.79 1.03,7.63 c 1.59,2.24 3.76,3.13 6.52,2.68 c 1.75,-0.48 2.3,-1.57 1.64,-3.29 c -1,-0.49 -2.04,-0.91 -3.12,-1.25 c -0.27,-1.44 -0.87,-5.47 0.51,-6.4 c 1.12,-0.05 2.19,-0.25 3.21,-0.62 c 1.09,-6.57 -4.66,0.25 -4.04,-6.65 c -0.63,-0.75 -4.61,-0.81 -5.26,0.05 c -0.23,1.06 0.42,3.38 -1.27,3.44 Z M 753.98,139.9 c 1.37,0.11 2.74,0.11 4.11,-0.01 c 0.35,-0.02 0.59,-0.2 0.74,-0.54 c 0.17,-5.95 0.23,-11.91 0.17,-17.88 c 0.04,-0.77 -0.25,-1.35 -0.87,-1.76 c -1.38,-0.25 -2.77,-0.37 -4.18,-0.37 c -0.68,0.03 -0.98,0.41 -0.91,1.14 c -0.1,6.3 -0.06,12.59 0.13,18.88 c 0.16,0.35 0.43,0.53 0.81,0.54 Z M 151.73,122.13 c 0.91,-1.77 2.3,-2.27 4.18,-1.51 c 1.19,1.08 1.05,1.83 -0.42,2.26 c -1.39,0.29 -2.65,0.04 -3.76,-0.75 Z M 469.1,122.01 c 0.76,-1.78 2.04,-2.24 3.84,-1.38 c 1.44,1.13 1.29,1.89 -0.45,2.28 c -0.8,-0.1 -3.3,0.41 -3.39,-0.9 Z M 682.99,140 c 9.51,0.59 20.9,-0.84 17.28,-13.81 c -3.25,-6.98 -10.96,-5.64 -17.32,-5.91 c -0.77,0.48 -1.1,1.22 -0.99,2.2 c 0.01,5.01 0,10.02 -0.02,15.04 c 0.03,0.81 -0.12,2.37 1.05,2.48 Z M 117.69,123.08 c 1.09,-3.87 7.68,-3.12 5.73,3.71 c -3.35,2.71 -6.46,0.39 -5.73,-3.71 Z M 485.64,123.99 c 0.2,-4.47 5.05,-4.01 5.67,-0.52 c 0.68,4.41 -5.91,5.23 -5.67,0.52 Z M 864.16,128.9 c -0.03,1.99 -0.95,6.91 0.88,8.23 c -0.25,2.93 11.47,4.78 8.38,-0.94 c -4.46,0.01 -3.47,-2.24 -3.54,-5.77 c -0.04,-0.6 0.18,-1.09 0.66,-1.44 c 1.11,-0.06 2.17,-0.26 3.18,-0.62 c 0.56,-3.76 -0.24,-3.04 -3.15,-3.43 c -2.22,-2.37 1.69,-4.6 -4.87,-3.68 c -1.25,0.61 -0.53,1.95 -0.91,3.05 c -0.78,0.65 -1.45,1.39 -2.01,2.23 c -0.11,1.13 0.35,1.92 1.38,2.37 Z M 1058.01,134.9 c -0.05,1.72 4.28,1.09 5.22,0.7 c 3.44,-5.83 2.48,-2.55 5.44,0.14 c 1.2,0.27 4.3,0.7 5.14,-0.31 c -1.16,-1.87 -2.34,-3.72 -3.53,-5.56 c -1.77,-2.31 2.33,-6.36 3.4,-8.35 c -0.59,-0.52 -1.3,-0.76 -2.11,-0.72 c -2.39,-0.48 -3.96,0.43 -4.71,2.72 c -0.29,0.44 -0.7,0.6 -1.21,0.46 c -0.84,-0.9 -1.6,-1.86 -2.3,-2.89 c -1.55,-0.42 -3.1,-0.43 -4.65,0 c -1.42,0.96 3.66,5.66 3.4,7.35 c -1.23,2.23 -2.6,4.38 -4.09,6.46 Z M 1074.92,128.08 c 0.58,7.42 7.12,9.31 13.26,6.55 c 1.32,-1.48 1.05,-2.61 -0.81,-3.39 c -1.8,0.3 -6.9,1.91 -6.33,-1.61 c 2.83,-0.12 5.69,-0.21 8.55,-0.28 c 0.84,-0.25 1.22,-0.82 1.13,-1.7 c -1.69,-9.18 -13.54,-9.36 -15.8,0.43 Z M 1092.03,129 c 2.07,11.58 16.97,5.68 13.72,2.9 c -1.82,-1.71 -3.5,-0.68 -5.48,-0.14 c -1.74,0.24 -2.75,-0.49 -3.06,-2.2 c -0.33,-4.29 1.49,-5.55 5.47,-3.78 c 0.51,0.07 0.99,-0.01 1.45,-0.23 c 3.47,-0.9 1.42,-3.58 -0.97,-4.19 c -5.98,-1.41 -11.02,1.05 -11.13,7.64 Z M 1109.07,133.12 c 0.53,3.44 7.25,2.95 9.47,1.25 c 0.9,2.21 2.46,1.68 4.53,1.54 c 0.36,-0.03 0.61,-0.21 0.76,-0.55 c 0.23,-4.59 0.24,-9.17 0.02,-13.76 c -0.15,-0.38 -0.42,-0.62 -0.81,-0.71 c -1.33,-0.09 -2.67,-0.11 -4,-0.06 c -0.44,0.08 -0.73,0.33 -0.89,0.75 c -0.1,2.88 -0.17,5.76 -0.22,8.64 c 0.14,1.45 -3.64,1.9 -4.01,-0.01 c 0.09,-2.58 0.11,-5.15 0.08,-7.73 c 0.02,-0.75 -0.29,-1.3 -0.93,-1.66 c -1.38,-0.04 -2.76,-0.02 -4.14,0.06 c -0.66,0.29 -0.98,0.81 -0.95,1.55 c -0.13,3.35 -0.02,6.68 0.32,10.01 c 0.16,0.34 0.42,0.56 0.77,0.68 Z M 1139.93,136.03 c 1.35,-0.02 2.7,-0.04 4.06,-0.04 c 0.39,-0.05 0.66,-0.26 0.83,-0.63 c 0.17,-3.95 0.24,-7.91 0.2,-11.87 c 0.2,-1.16 -0.15,-2.05 -1.07,-2.69 c -1.35,0.09 -2.7,0.13 -4.05,0.11 c -0.65,0.3 -0.96,0.82 -0.91,1.56 c -0.05,4.31 0.01,8.61 0.18,12.91 c 0.15,0.34 0.4,0.56 0.76,0.65 Z M 1147.26,125.84 c -0.39,15.7 19.88,11.53 16.02,-0.71 c -4.21,-6.12 -12.33,-5.45 -16.02,0.71 Z M 1166.9,135.98 c 1.36,0.04 2.71,0.01 4.06,-0.12 c 0.7,-0.15 1.04,-0.59 1.02,-1.34 c 0.04,-2.57 0.01,-5.15 -0.09,-7.72 c 0.55,-2.09 2.67,-1.74 4.1,-0.83 c -0.01,3.13 0.05,6.26 0.21,9.38 c 0.13,0.34 0.38,0.55 0.73,0.63 c 1.35,0.04 2.71,0.01 4.06,-0.09 c 0.39,0.01 0.67,-0.16 0.85,-0.52 c 0.21,-3.28 0.25,-6.57 0.11,-9.87 c -0.03,-0.73 -0.36,-1.27 -0.98,-1.63 c -2.37,-5.37 -7.22,-0.82 -10.64,-2.78 c -1.15,-0.16 -2.31,-0.24 -3.48,-0.25 c -0.62,0.35 -0.91,0.9 -0.88,1.63 c -0.06,4.31 0,8.61 0.18,12.9 c 0.15,0.34 0.4,0.54 0.75,0.61 Z M 1354.27,124.84 c 3.09,-6.88 12.01,-4.21 10.29,3.41 c -2.88,6.36 -10.91,3.76 -10.29,-3.41 Z M 1373.03,141.17 c 5.28,0.16 4.81,0.23 4.67,-4.7 c 0,-0.59 0.23,-1.06 0.7,-1.39 c 13.62,4.55 15.06,-16.99 0.1,-13.69 c -1.81,-0.37 -3.65,-0.57 -5.5,-0.59 c -0.71,0.32 -1.05,0.88 -1.01,1.68 c -0.06,5.97 0,11.95 0.17,17.92 c 0.17,0.4 0.46,0.66 0.87,0.77 Z M 1404.02,135.95 c 1.32,0.04 2.63,0.04 3.95,0.02 c 1.21,-0.05 1.09,-1.63 1.1,-2.45 c -0.01,-3.68 -0.02,-7.37 -0.02,-11.05 c 0.03,-0.74 -0.27,-1.29 -0.9,-1.66 c -1.37,0.11 -2.74,0.11 -4.12,0 c -0.43,0.09 -0.73,0.35 -0.89,0.77 c -0.15,4.31 -0.19,8.62 -0.12,12.94 c -0.05,0.76 0.29,1.24 1,1.43 Z M 1412.97,135.99 c 1.35,0 2.7,0 4.05,0 c 0.69,-0.23 1.03,-0.72 1.02,-1.46 c 0.01,-2.55 0,-5.09 -0.01,-7.63 c 0.62,-2.35 4.47,-2.4 5.04,-0.01 c -0.18,2.83 -0.15,5.66 0.08,8.47 c 0.18,0.35 0.45,0.51 0.83,0.5 c 1.21,-0.11 3.23,0.64 4.08,-0.52 c 0.28,-2.48 0.42,-4.98 0.41,-7.5 c 0.7,-2.56 2.2,-3.18 4.52,-1.86 c 0.03,2.84 0.05,5.69 0.03,8.53 c -0.02,0.71 0.27,1.21 0.89,1.5 c 1.29,-0.23 4.46,0.73 4.42,-1.41 c -0.05,-4.95 1.54,-15.31 -6.7,-13.45 c -1.37,0.49 -2.7,1.06 -3.97,1.73 c -3.66,-2.3 -5,-2.15 -9.07,-0.97 c -1.75,-0.9 -3.61,-1.23 -5.59,-0.99 c -0.42,0.05 -0.7,0.27 -0.86,0.67 c -0.14,4.3 -0.19,8.61 -0.13,12.93 c -0.03,0.73 0.3,1.22 0.96,1.47 Z M 1441.93,135.87 c 1.37,0.11 2.74,0.15 4.12,0.12 c 1.15,-0.11 0.99,-1.68 1.02,-2.47 c -0.01,-3.68 -0.02,-7.37 -0.02,-11.05 c 0.03,-0.74 -0.27,-1.29 -0.9,-1.66 c -1.38,0.12 -2.76,0.11 -4.14,-0.03 c -0.43,0.12 -0.71,0.38 -0.87,0.8 c -0.14,4.31 -0.19,8.62 -0.13,12.94 c -0.05,0.71 0.26,1.16 0.92,1.35 Z M 1449.66,135.04 c 0.19,0.41 0.51,0.68 0.96,0.8 c 3.93,0.16 7.87,0.18 11.81,0.06 c 1.35,-0.95 1.35,-2.83 -0.01,-3.78 c -2.07,0.02 -4.11,-0.15 -6.11,-0.51 c 1.95,-2.28 3.96,-4.52 6.03,-6.7 c 1.11,-1.29 1.66,-4.01 -0.78,-4.12 c -3.69,-0.07 -7.37,0 -11.04,0.21 c -0.94,1 -1.07,2.12 -0.38,3.36 c 1.74,0.4 3.52,0.6 5.35,0.6 c 0.11,0.13 0.23,0.27 0.35,0.4 c -1.68,2.33 -3.45,4.6 -5.32,6.81 c -0.53,0.88 -0.82,1.84 -0.86,2.87 Z M 1464.63,131.1 c 0.15,2.21 1.23,3.7 3.26,4.46 c 3.53,-0.12 7.03,-0.01 10.53,0.33 c 0.56,-0.3 0.85,-0.77 0.85,-1.42 c -0.68,-4.22 1.72,-11.75 -3.8,-13.19 c -1.43,-0.36 -10.19,-0.67 -9.37,2.18 c 0.49,4.21 8.52,-0.75 7.78,2.94 c -2.24,0.42 -4.5,0.82 -6.79,1.22 c -1.29,0.82 -2.11,1.98 -2.46,3.48 Z M 1495.02,135.89 c 1.34,0.12 2.67,0.11 4.01,-0.01 c 1.18,0.06 1.02,-1.64 1.04,-2.36 c -0.01,-3.68 -0.02,-7.37 -0.02,-11.05 c 0.03,-0.74 -0.27,-1.29 -0.9,-1.66 c -1.4,0.12 -2.79,0.11 -4.19,-0.02 c -0.69,0.34 -1.01,0.9 -0.96,1.69 c -0.06,4.3 0,8.6 0.18,12.89 c 0.17,0.36 0.45,0.54 0.84,0.52 Z M 1502.68,128.05 c 0.6,9.68 14.06,10.84 16.35,1.4 c 1.03,-10.48 -14.78,-12.08 -16.35,-1.4 Z M 1522.01,135.94 c 1.36,-0.2 2.99,0.6 4.05,-0.5 c 0.15,-2.78 0.33,-5.56 0.55,-8.33 c 0.77,-1.52 1.98,-2.14 3.64,-1.86 c 0.25,0.06 0.39,0.22 0.41,0.46 c 0.55,2.92 0.69,5.86 0.43,8.82 c -0.05,0.74 0.28,1.13 0.99,1.16 c 0.32,0.08 0.63,0.16 0.94,0.24 c 1.31,-0.14 3.05,0.65 4.03,-0.52 c 0.16,-3.76 0.09,-7.52 -0.22,-11.27 c -0.04,-0.6 -0.33,-1.03 -0.85,-1.3 c -0.9,-2.66 -6.5,-2.2 -8.51,-1.07 c -1.72,-0.94 -3.55,-1.26 -5.51,-0.96 c -0.66,0.35 -0.99,0.91 -0.97,1.67 c 0.08,3.68 0.07,7.36 -0.01,11.04 c 0.02,0.77 -0.15,2.39 1.03,2.42 Z M 688,124.31 c 2.46,-0.19 7.71,1.12 7.62,4.31 c 0.27,6.09 -1.69,7.23 -7.56,7.4 c -0.08,-3.91 -0.1,-7.81 -0.06,-11.71 Z M 702.26,132.91 c 0.51,6.74 9.31,8.89 13.57,5.34 c 0.6,-1.5 0.14,-2.5 -1.37,-3.01 c -1.84,0.21 -6.71,1.93 -6.26,-1.61 c 2.77,-0.13 5.56,-0.2 8.37,-0.21 c 1.58,-0.06 1.24,-1.79 1.12,-2.82 c -2.05,-8.81 -16.17,-6.96 -15.43,2.31 Z M 718.98,126.04 c 1.83,4.36 3.5,8.78 5,13.26 c 0.97,1.24 2.25,0.56 3.59,0.67 c 0.82,0.06 1.52,-0.17 2.1,-0.68 c 1.31,-4.52 2.96,-8.92 4.92,-13.21 c 0.78,-1.92 -4.29,-1.27 -5.04,-0.88 c -0.52,2.4 -1.14,4.79 -1.85,7.17 c -0.17,0.62 -0.54,1.08 -1.11,1.35 c -1.07,-2.63 -1.96,-5.33 -2.67,-8.1 c -0.9,-1.17 -4.83,-1.54 -4.94,0.42 Z M 735.3,129.34 c -0.1,2.1 0.12,4.16 0.67,6.17 c 2.23,4.69 9.02,5.65 12.93,2.72 c 0.48,-1.11 0.24,-2.06 -0.72,-2.83 c -1.84,0.15 -3.68,0.27 -5.54,0.37 c -1.11,-0.12 -2.52,-1.86 -0.94,-2.4 c 2.89,0.23 5.77,0.15 8.63,-0.23 c 0.44,-1.06 0.51,-2.16 0.19,-3.29 c -2.6,-7.05 -11.29,-5.95 -15.22,-0.51 Z M 761.24,129.3 c -1.04,11.67 11.94,14.33 16.08,5.68 c 2.52,-11.07 -9.62,-13.02 -16.08,-5.68 Z M 781.04,145.14 c 1.38,-0.23 3.1,0.67 4.05,-0.66 c 0.21,-2.04 0.31,-4.08 0.32,-6.12 c 3.86,2.82 9.29,1.54 11.03,-3.1 c 1.27,-7.1 -2.42,-12.04 -10,-9.65 c -1.78,-0.51 -3.6,-0.77 -5.46,-0.78 c -0.68,0.33 -1.01,0.88 -0.99,1.65 c -0.05,5.98 0,11.95 0.17,17.92 c 0.17,0.4 0.46,0.64 0.88,0.74 Z M 799.94,139.96 c 1.37,0.03 2.74,0.04 4.11,0.04 c 0.65,-0.27 0.96,-0.76 0.94,-1.48 c 0,-2.58 0.01,-5.15 0.03,-7.73 c 0.64,-1.39 1.74,-1.9 3.29,-1.56 c 0.36,0.1 0.63,0.31 0.81,0.63 c -0.08,3.16 -0.04,6.31 0.12,9.46 c 0.21,0.38 0.53,0.54 0.96,0.46 c 1.3,0.2 2.6,0.27 3.91,0.2 c 0.64,-0.25 0.95,-0.74 0.92,-1.45 c -0.02,-2.52 -0.01,-5.05 0.02,-7.57 c -0.19,-1.88 4.62,-2.78 4.97,-0.1 c -0.13,2.85 -0.09,5.68 0.13,8.5 c 0.15,0.34 0.41,0.51 0.77,0.51 c 1.22,-0.01 3.28,0.64 4.13,-0.53 c 0.25,-2.26 0.34,-4.52 0.24,-6.81 c -0.03,-1.44 -0.17,-2.88 -0.43,-4.3 c -0.06,-0.66 -0.38,-1.14 -0.97,-1.43 c 0.31,-1.94 -5.08,-1.91 -6.18,-1.5 c -1.06,0.56 -2.13,1.07 -3.21,1.54 c -1.24,-0.8 -2.59,-1.38 -4.04,-1.73 c -1.72,-0.15 -3.38,0.07 -4.99,0.67 c -1.73,-0.72 -3.55,-1.04 -5.45,-0.94 c -0.41,0.11 -0.7,0.36 -0.86,0.76 c -0.16,4.3 -0.21,8.61 -0.16,12.92 c -0.03,0.72 0.28,1.2 0.94,1.44 Z M 827.26,129.87 c -0.46,6.25 2.48,10.37 9.13,9.89 c 2.5,0.21 7.06,-1.69 3.75,-4.43 c -1.83,0.22 -3.68,0.36 -5.53,0.43 c -1.12,-0.31 -1.58,-1.04 -1.39,-2.19 c 3.05,0.03 6.09,-0.12 9.13,-0.46 c 0.46,-1.04 0.52,-2.12 0.17,-3.23 c -3.13,-7.22 -11.61,-6.26 -15.26,-0.01 Z M 845.92,139.91 c 1.38,-0.18 3.03,0.61 4.11,-0.52 c 0.3,-2.5 0.41,-5.01 0.35,-7.55 c 0.67,-2.58 2.17,-3.22 4.48,-1.91 c 0.13,3.14 0.24,6.28 0.34,9.42 c 0.15,0.36 0.4,0.58 0.77,0.66 c 1.36,0 2.71,-0.02 4.07,-0.05 c 0.38,-0.04 0.65,-0.23 0.81,-0.59 c 0.14,-2.25 0.84,-10.1 -0.76,-11.52 c -1.82,-3.43 -5.55,-3.28 -8.72,-1.94 c -2.1,-0.57 -3.13,-1.33 -5.52,-1.07 c -0.62,0.35 -0.91,0.9 -0.88,1.63 c -0.06,4.31 0,8.61 0.18,12.9 c 0.15,0.33 0.41,0.52 0.77,0.54 Z M 1152.63,128.08 c -0.15,-3.76 4.75,-4.35 6,-1.41 c -0.16,2.97 1.1,4.05 -2.23,5.11 c -2.73,0.33 -3.99,-0.9 -3.77,-3.7 Z M 1377.6,128.05 c 0.9,-5.28 8.2,-3.83 6.07,2.23 c -1.73,3.3 -5.99,1.61 -6.07,-2.23 Z M 1507.58,128.05 c 0.72,-4.41 6.46,-4.59 6.44,0.46 c 0.12,4.65 -6.15,4.8 -6.44,-0.46 Z M 707.65,130.13 c 0.96,-2.47 5.15,-2.76 4.99,0.15 c -0.8,1.03 -4.07,0.94 -4.99,-0.15 Z M 740.69,130.22 c 0.88,-2.77 4.99,-2.6 5.01,0.11 c -0.82,0.96 -4.12,0.85 -5.01,-0.11 Z M 832.75,130.23 c 0.7,-2.26 4.18,-2.9 4.92,-0.52 c 0.37,1.96 -4.03,1.4 -4.92,0.52 Z M 766.67,131.04 c 1.76,-4.2 7.24,-2.51 5.95,3.3 c -3.5,3.41 -6.44,1.31 -5.95,-3.3 Z M 785.61,131.97 c 0.23,-3.73 4.28,-4.13 6.05,-1.27 c 1.47,5.84 -6.28,7.61 -6.05,1.27 Z"/></g>











</svg>